<svg version="1.2" width="200mm" height="200mm" viewBox="400 400 8000 8000" preserveAspectRatio="xMidYMid" fill-rule="evenodd" stroke-width="28.222" stroke-linejoin="round" xmlns="http://www.w3.org/2000/svg"><path fill="none" d="M1316 1367h6619v6619H1316z"/><defs><clipPath id="prefix__a" clipPathUnits="userSpaceOnUse"><path d="M1316 4676c0-581 153-1151 443-1654 291-504 708-921 1211-1212 504-290 1074-443 1655-443s1151 153 1655 443c503 291 920 708 1211 1211 290 504 443 1074 443 1655s-153 1151-443 1654c-291 504-708 921-1211 1212-504 290-1074 443-1655 443s-1151-153-1654-443c-504-291-921-708-1212-1212-290-503-443-1073-443-1654z"/></clipPath></defs><g clip-path="url(#prefix__a)"><path fill="#B9D435" d="M1316 1367h6618v6618H1316V1367z"/><path fill="#B7D234" d="M1316 1669h6618v6316H1316V1669z"/><path fill="#B5D034" d="M1316 1970h6618v6015H1316V1970z"/><path fill="#B3CE33" d="M1316 2270h6618v5715H1316V2270z"/><path fill="#B1CC33" d="M1316 2571h6618v5414H1316V2571z"/><path fill="#AFCA32" d="M1316 2872h6618v5113H1316V2872z"/><path fill="#ADC731" d="M1316 3173h6618v4812H1316V3173z"/><path fill="#ABC531" d="M1316 3473h6618v4512H1316V3473z"/><path fill="#A9C330" d="M1316 3774h6618v4211H1316V3774z"/><path fill="#A7C12F" d="M1316 4075h6618v3910H1316V4075z"/><path fill="#A5BF2F" d="M1316 4376h6618v3609H1316V4376z"/><path fill="#A4BD2E" d="M1316 4676h6618v3309H1316V4676z"/><path fill="#A2BB2E" d="M1316 4977h6618v3008H1316V4977z"/><path fill="#A0B92D" d="M1316 5278h6618v2707H1316V5278z"/><path fill="#9EB72C" d="M1316 5579h6618v2406H1316V5579z"/><path fill="#9CB52C" d="M1316 5880h6618v2105H1316V5880z"/><path fill="#9AB22B" d="M1316 6180h6618v1805H1316V6180z"/><path fill="#98B02A" d="M1316 6481h6618v1504H1316V6481z"/><path fill="#96AE2A" d="M1316 6782h6618v1203H1316V6782z"/><path fill="#94AC29" d="M1316 7083h6618v902H1316v-902z"/><path fill="#92AA29" d="M1316 7383h6618v602H1316v-602z"/><path fill="#90A828" d="M1316 7684h6618v301H1316v-301z"/></g><path fill="none" d="M1825 1874h5589v5589H1825z"/><path fill="#FFF" d="M1825 4668c0-490 129-972 374-1397 246-425 598-777 1023-1023 425-245 907-374 1397-374s972 129 1397 374c425 246 777 598 1023 1023 245 425 374 907 374 1397s-129 972-374 1397c-246 425-598 777-1023 1023-425 245-907 374-1397 374s-972-129-1397-374c-425-246-777-598-1023-1023-245-425-374-907-374-1397z"/><path fill="none" d="M1772 2209h5643v5202H1772z"/><path fill="#90A828" d="M4579 2243l2814 4630-344 503-2479-4155-2478 4155-299-494 2786-4639z"/><path fill="none" stroke="#90A828" stroke-width="35" stroke-linejoin="miter" d="M4579 2243l2814 4630-344 503-2479-4155-2478 4155-299-494 2786-4639h0z"/><path fill="none" d="M3287 4002h1215v1822H3287z"/><path fill="#FFF" d="M3800 4969l-513-854 188-113 1026 1707-188 113-513-853z"/><path fill="none" d="M4819 3890h1215v1822H4819z"/><path fill="#FFF" d="M5332 4744l513-854 188 113-1026 1707-188-113 513-853z"/><path fill="none" d="M3628 4482h1215v1822H3628z"/><path fill="#FFF" d="M4141 5336l513-854 188 113-1026 1707-188-113 513-853z"/><g><path fill="none" d="M5394 4468h1215v1822H5394z"/><path fill="#FFF" d="M5907 5322l513-854 188 113-1026 1707-188-113 513-853z"/></g><g><path fill="none" d="M6563 5346h1215v1822H6563z"/><path fill="#FFF" d="M7076 6313l-513-854 188-113 1026 1707-188 113-513-853z"/></g><g><path fill="none" d="M6076 6096h1215v1822H6076z"/><path fill="#FFF" d="M6589 7063l-513-854 188-113 1026 1707-188 113-513-853z"/></g><g><path fill="none" d="M1900 6024h1215v1822H1900z"/><path fill="#FFF" d="M2413 6878l513-854 188 113-1026 1707-188-113 513-853z"/></g><g><path fill="none" d="M1318 5504h1215v1822H1318z"/><path fill="#FFF" d="M1831 6358l513-854 188 113-1026 1707-188-113 513-853z"/></g><g><path fill="none" d="M1739 4192h2380v3270H1739z"/><path fill="#B9D435" d="M1760 6892l1602-2666 735 1200-341 533-385-658-1307 2125-304-534z"/><path fill="none" stroke="#FFF" stroke-width="35" stroke-linejoin="miter" d="M1760 6892l1602-2666 735 1200-341 533-385-658-1307 2125-304-534h0z"/></g><g><path fill="none" d="M3827 4076h2479v3392H3827z"/><path fill="#135CB9" d="M6284 4665L4614 7433l-766-1245 355-554 402 683 1362-2206 317 554z"/><path fill="none" stroke="#FFF" stroke-width="35" stroke-linejoin="miter" d="M6284 4665L4614 7433l-766-1245 355-554 402 683 1362-2206 317 554h0z"/></g><g><path fill="none" d="M5509 3613h1215v1822H5509z"/><path fill="#FFF" d="M6022 4580l-513-854 188-113 1026 1707-188 113-513-853z"/></g></svg>