<?xml version="1.0" encoding="UTF-8"?>
<svg version="1.1" xmlns="http://www.w3.org/2000/svg" width="1042" height="511">
<path d="M0 0 C1.40608684 -0.0019545 2.81217312 -0.00434394 4.21825856 -0.00712797 C8.08976906 -0.01351881 11.96125877 -0.01369033 15.83277354 -0.01285056 C20.04191548 -0.01302024 24.25105003 -0.01892838 28.46018827 -0.02409142 C36.81191268 -0.03341491 45.16363179 -0.03733904 53.51536076 -0.03961039 C63.51764273 -0.04257306 73.51991768 -0.05127079 83.52219596 -0.06002467 C107.6969703 -0.0808661 131.87174586 -0.09133791 156.04652709 -0.10015428 C167.48133453 -0.10436072 178.91614145 -0.10958268 190.35094845 -0.11483881 C229.48907612 -0.13272764 268.62720394 -0.14772444 307.76533508 -0.155159 C310.22226468 -0.15563375 312.67919427 -0.15610964 315.13612386 -0.15658666 C316.96375253 -0.15694122 316.96375253 -0.15694122 318.82830299 -0.15730295 C325.00145317 -0.15850415 331.17460335 -0.1597196 337.34775352 -0.16094494 C338.57283415 -0.16118509 339.79791477 -0.16142524 341.06011905 -0.16167267 C380.79097221 -0.16956772 420.52179554 -0.19300453 460.25263567 -0.22550088 C502.25307565 -0.25979091 544.25349817 -0.2795093 586.25395238 -0.28280324 C590.86365343 -0.28322078 595.47335446 -0.28370035 600.0830555 -0.28422642 C601.21810319 -0.28434961 602.35315088 -0.2844728 603.52259396 -0.28459973 C621.79552768 -0.28693262 640.06842676 -0.30259738 658.34134813 -0.32306826 C676.70429043 -0.34331384 695.06719108 -0.34880953 713.43014248 -0.33929763 C724.3409054 -0.33407798 735.25152977 -0.33998214 746.16227278 -0.3618323 C753.45142193 -0.37532734 760.74047557 -0.37427484 768.02962564 -0.36143034 C772.18214786 -0.35452519 776.33440495 -0.35389317 780.48690362 -0.37099043 C784.27002701 -0.38643975 788.05267316 -0.38322565 791.83578276 -0.36558015 C793.82609536 -0.36098046 795.81642448 -0.37587803 797.80667919 -0.39173993 C817.51895841 -0.24058346 830.82838253 8.64702612 844.38828087 22.18109608 C883.46000905 63.83672612 894.20072329 133.1936937 899.33749962 188.13422108 C899.42363518 189.03752155 899.50977074 189.94082203 899.59851646 190.87149525 C901.36658322 209.99610023 901.70074257 229.02892391 901.65535545 248.21670628 C901.64992015 250.60666277 901.64754957 252.99660937 901.64548302 255.38657093 C901.6148726 278.09657596 901.17918962 300.5752445 898.33749962 323.13422108 C898.19828087 324.35093494 898.05906212 325.56764881 897.91562462 326.8212328 C891.72014559 380.9241139 879.30385153 452.33560048 835.33749962 489.13422108 C822.90698896 498.71647183 810.60419355 502.76587983 794.85305882 502.62641239 C793.55320646 502.63102777 792.25335411 502.63564315 790.9141123 502.64039838 C787.32901083 502.65257185 783.74436936 502.64006133 780.15930248 502.62328585 C776.25056017 502.60946431 772.34186121 502.61904824 768.43310958 502.62559581 C761.59040111 502.63386718 754.74783214 502.62735621 747.90513992 502.61104298 C737.7304149 502.58685363 727.55577741 502.58570432 717.38102888 502.58921093 C700.26362983 502.59446089 683.14629264 502.58112236 666.02891159 502.5571413 C649.0838007 502.53346251 632.13871558 502.51807536 615.19358826 502.51373005 C614.13947197 502.51345509 613.08535569 502.51318013 611.99929649 502.51289684 C606.64583879 502.51154348 601.29238108 502.51033796 595.93892334 502.50918934 C558.03343449 502.50079065 520.12797928 502.47384946 482.22250938 502.43597889 C445.40089662 502.39923367 408.57929306 502.37090288 371.75766563 502.35394764 C370.62239893 502.35342153 369.48713222 502.35289543 368.31746349 502.35235338 C356.91651127 502.34707924 345.51555898 502.341976 334.11460663 502.33699795 C310.8901418 502.32685345 287.66567757 502.31556844 264.44121361 502.30359364 C263.37342131 502.30304448 262.30562901 502.30249532 261.20547936 502.30192951 C189.91613856 502.26513507 118.62681734 502.20144755 47.33749962 502.13422108 C47.33749962 491.57422108 47.33749962 481.01422108 47.33749962 470.13422108 C53.17077053 470.13202124 53.17077053 470.13202124 59.1218853 470.12977695 C127.15555548 470.10366365 195.18922186 470.07246925 263.2228756 470.01758289 C264.28753272 470.01672538 265.35218985 470.01586787 266.44910931 470.01498438 C289.58566476 469.99631978 312.72221939 469.97676737 335.85877332 469.95630012 C347.20454653 469.94626874 358.5503199 469.93643358 369.89609337 469.92670155 C371.58967587 469.92524384 371.58967587 469.92524384 373.31747217 469.92375668 C409.9289206 469.89233628 446.54036166 469.87387953 483.15182125 469.86212861 C520.76745516 469.84998705 558.38305823 469.82480062 595.99867159 469.78314494 C601.30874243 469.77727064 606.61881341 469.77154584 611.92888451 469.76591206 C612.97400689 469.7647986 614.01912926 469.76368514 615.09592202 469.76253794 C631.93548499 469.74498207 648.77502429 469.74122234 665.61459518 469.74259187 C682.534375 469.74367458 699.45409402 469.73029416 716.37385076 469.7020568 C726.43245396 469.68571209 736.49091974 469.6805503 746.54953129 469.69124933 C753.2645449 469.69730038 759.97943949 469.68892722 766.69442522 469.66872878 C770.52323862 469.65762764 774.35177211 469.65288987 778.18058652 469.66570863 C782.30276275 469.67936359 786.42423581 469.66224147 790.54638481 469.64202976 C791.73825386 469.65093347 792.9301229 469.65983718 794.15810919 469.6690107 C804.71424824 469.56913947 811.10373267 466.14970083 818.77109337 458.90375233 C853.84316216 421.05581203 861.13109261 357.19820066 866.33749962 308.13422108 C866.45754356 307.03175037 866.57758751 305.92927967 866.70126915 304.79340076 C874.74942402 226.99856847 872.40383567 111.61252986 821.56015587 46.72797108 C815.93677653 40.1657147 809.32825386 33.89715617 800.41895923 32.76253885 C796.84976171 32.62046062 793.29966925 32.6046413 789.7276783 32.63085651 C788.33959311 32.62668029 786.95151229 32.62075255 785.56344116 32.61323905 C781.7464107 32.59766342 777.92978497 32.6069819 774.11276111 32.62035086 C769.96095721 32.63049488 765.8092155 32.61745904 761.6574204 32.60737753 C754.37963798 32.5929229 747.10197423 32.59337384 739.82418633 32.60356617 C729.00133041 32.61868205 718.17857479 32.61096821 707.35571958 32.59873294 C688.02391636 32.57765255 668.69216597 32.57950308 649.36035771 32.59104859 C632.435387 32.601107 615.51043566 32.60373945 598.58546257 32.59895802 C597.4632014 32.59865248 596.34094022 32.59834693 595.18467114 32.59803214 C590.62902521 32.59678678 586.0733793 32.59551318 581.5177334 32.59419308 C538.7602601 32.58195085 496.00282044 32.59305898 453.24535233 32.61458067 C415.2737714 32.63354819 377.30224414 32.63187835 339.33066368 32.6127367 C296.66998955 32.59130316 254.0093452 32.58283459 211.34866643 32.59518576 C206.79755291 32.5964686 202.24643938 32.59771997 197.69532585 32.59895802 C196.01442926 32.59943248 196.01442926 32.59943248 194.29957516 32.59991653 C177.3952646 32.60446177 160.49097559 32.59915366 143.58666801 32.5890398 C124.35160615 32.57758884 105.11660539 32.58049099 85.88155112 32.60216278 C75.12334386 32.6138849 64.36526901 32.6147082 53.60706526 32.59957808 C46.41069231 32.5905761 39.21442499 32.59624912 32.01806763 32.61359716 C27.92430511 32.62306596 23.83080466 32.62646368 19.73705086 32.61197323 C-12.79945763 32.50540652 -43.34443496 36.78477304 -68.66250038 59.13422108 C-69.50425819 59.84449451 -70.34601601 60.55476795 -71.21328163 61.28656483 C-91.61711599 78.90383607 -104.81401419 105.34694189 -107.66250038 132.13422108 C-109.59862608 166.62316443 -100.11471728 195.94829202 -77.29531288 221.81781483 C-69.18649444 230.33872076 -59.63870484 236.75278204 -49.63662148 242.83295155 C-41.27478667 247.91901602 -33.85092744 253.4934837 -26.66250038 260.13422108 C-25.89728065 260.83369862 -25.89728065 260.83369862 -25.11660194 261.54730701 C0.15314217 284.89417903 17.85708934 320.07135142 19.50595665 354.66888905 C19.96718353 369.95498983 20.05247059 385.20852077 16.33749962 400.13422108 C16.17121056 400.82548084 16.00492149 401.51674061 15.83359337 402.22894764 C10.44663621 424.00622075 0.21041604 444.32562031 -14.66250038 461.13422108 C-15.94447304 462.61535389 -15.94447304 462.61535389 -17.25234413 464.12640858 C-39.86910353 489.86229699 -73.26675847 508.06317269 -107.66250038 511.13422108 C-113.67869864 511.4140168 -119.63709592 511.27655347 -125.66250038 511.13422108 C-125.66250038 500.57422108 -125.66250038 490.01422108 -125.66250038 479.13422108 C-121.17656288 478.76297108 -121.17656288 478.76297108 -116.60000038 478.38422108 C-92.73383744 476.13207299 -71.31391476 467.1816245 -52.66250038 452.13422108 C-51.49267616 451.21383045 -51.49267616 451.21383045 -50.29921913 450.27484608 C-29.13745463 432.68389442 -16.15993003 404.20353239 -13.66250038 377.13422108 C-11.74420723 343.36929326 -22.41342776 314.0780372 -44.71718788 288.80609608 C-52.70477235 280.38764605 -62.43284232 274.21161733 -72.22500038 268.13422108 C-104.89363713 247.75965127 -128.74614321 216.30330698 -137.58706093 178.59662342 C-142.65891331 155.48481253 -143.21722682 129.04047255 -136.66250038 106.13422108 C-136.42644081 105.30857655 -136.19038124 104.48293201 -135.94716835 103.63226795 C-124.46471414 65.04648371 -98.50041547 34.47371051 -63.28750038 15.38422108 C-43.58002715 5.04866654 -22.17612313 -0.02537354 0 0 Z " fill="#7F0000" transform="translate(140.66250038146973,-0.13422107696533203)"/>
<path d="M0 0 C2.76357587 2.19934579 5.39654985 4.4771206 8 6.86328125 C8.80308594 7.59675781 9.60617187 8.33023438 10.43359375 9.0859375 C24.86030606 22.88011268 33.57543657 41.32376689 34.08984375 61.36328125 C34.18164257 71.31835353 34.18164257 71.31835353 33 74.86328125 C18.97039804 74.93333276 4.94082316 74.98605106 -9.08891773 75.01871777 C-15.60304123 75.03439375 -22.1170475 75.05566746 -28.63110352 75.08959961 C-34.91398463 75.12212386 -41.19675276 75.14011969 -47.47971153 75.14791298 C-49.88037584 75.15346895 -52.28103377 75.16431795 -54.68165016 75.18047142 C-58.03635798 75.2021532 -61.39059506 75.20525202 -64.74536133 75.20385742 C-66.24400223 75.22003616 -66.24400223 75.22003616 -67.7729187 75.23654175 C-68.68577133 75.23241776 -69.59862396 75.22829376 -70.53913879 75.2240448 C-71.33280255 75.22681018 -72.12646631 75.22957556 -72.94418049 75.23242474 C-75.53318355 74.76754267 -76.4007948 73.9135456 -78 71.86328125 C-79.13357467 68.04320014 -79.16451623 64.26777928 -79.1875 60.30078125 C-79.20167969 59.18574219 -79.21585938 58.07070312 -79.23046875 56.921875 C-79.00681915 53.95377953 -78.64252648 52.31266285 -77 49.86328125 C-74.01435214 48.37045732 -71.31016282 48.74411148 -67.97998047 48.74975586 C-66.89689606 48.74953682 -66.89689606 48.74953682 -65.79193115 48.74931335 C-63.40031959 48.75001118 -61.00878549 48.7577975 -58.6171875 48.765625 C-56.96094811 48.76748964 -55.30470816 48.76891333 -53.64846802 48.76991272 C-49.28532392 48.77373426 -44.922213 48.78356147 -40.55908203 48.7946167 C-36.10840301 48.80483861 -31.65771863 48.80941201 -27.20703125 48.81445312 C-18.47133892 48.82518405 -9.73567359 48.84225613 -1 48.86328125 C-2.09741158 46.60917414 -3.20109673 44.35852093 -4.30859375 42.109375 C-4.61680054 41.47463257 -4.92500732 40.83989014 -5.24255371 40.18591309 C-10.46486686 29.62095699 -18.37973516 25.30722186 -29 20.86328125 C-40.92065959 17.53703269 -53.68557167 19.38628138 -64.38671875 25.1484375 C-74.60259485 31.37509203 -81.76037202 40.69079213 -84.61328125 52.375 C-86.53936934 64.76811226 -83.97308815 76.14899241 -76.87890625 86.45703125 C-70.35662068 94.80989593 -61.2247008 99.43908981 -51 101.86328125 C-48.22244113 102.14873555 -45.47827406 102.19754721 -42.6875 102.17578125 C-41.94056885 102.1708667 -41.1936377 102.16595215 -40.42407227 102.16088867 C-30.86763861 101.95888276 -23.80383083 99.28602197 -16 93.86328125 C-14.0011149 92.52827707 -12.00130367 91.194657 -10 89.86328125 C-7.43326478 92.4007004 -4.87240443 94.9439724 -2.3125 97.48828125 C-1.59126953 98.20113281 -0.87003906 98.91398437 -0.12695312 99.6484375 C3.81032379 103.56773598 7.52984393 107.52387505 11 111.86328125 C6.64183782 122.2311197 -7.17086445 127.77510098 -17 131.86328125 C-34.36957946 138.46239721 -56.85187532 136.50463642 -73.734375 129.3203125 C-81.32664346 125.87093084 -87.82078096 121.43648231 -94 115.86328125 C-94.68449219 115.27160156 -95.36898437 114.67992187 -96.07421875 114.0703125 C-110.08757336 101.15820383 -116.91786429 83.41898202 -118.21875 64.71875 C-118.82769477 44.14149143 -112.0889923 25.18542785 -98.359375 9.84765625 C-72.671974 -17.01402594 -30.54369662 -21.75442975 0 0 Z " fill="#800000" transform="translate(943,96.13671875)"/>
<path d="M0 0 C14.82940017 11.66195548 25.45397131 26.33259983 28.6796875 45.18359375 C31.09357169 65.50220154 28.27753561 84.93598767 15.92578125 101.6953125 C3.54504764 117.33271734 -15.9278488 127.46358466 -35.62109375 129.77734375 C-48.40664501 130.55372735 -63.01876201 128.19973157 -73.87109375 120.96484375 C-74.13776914 118.1275705 -74.21900609 115.5110133 -74.1640625 112.67578125 C-74.15981766 111.85735748 -74.15557281 111.03893372 -74.15119934 110.19570923 C-74.13438054 107.57675539 -74.09672349 104.95856573 -74.05859375 102.33984375 C-74.04355101 100.56641735 -74.02986189 98.79297891 -74.01757812 97.01953125 C-73.98446667 92.66767345 -73.93266327 88.31638824 -73.87109375 83.96484375 C-73.35087646 84.36606445 -72.83065918 84.76728516 -72.29467773 85.18066406 C-61.04565646 93.75604632 -50.16961002 98.18050708 -35.87109375 96.96484375 C-25.49768859 95.38426089 -16.85655824 91.4024037 -10.21875 83.08203125 C-6.19145014 76.7550848 -3.29634875 69.47768206 -2.87109375 61.96484375 C-2.80921875 61.31644531 -2.74734375 60.66804688 -2.68359375 60 C-2.11187062 50.11990974 -5.44134866 40.40992531 -11.90625 32.9609375 C-20.44958592 24.28172347 -29.72014084 19.90796441 -42.05859375 19.52734375 C-52.97814386 19.97216117 -63.65817012 24.05428206 -71.18359375 32.21484375 C-79.53891786 42.98445415 -81.16258564 54.46779109 -81.18994141 67.74853516 C-81.19998703 68.88140961 -81.21003265 70.01428406 -81.22038269 71.18148804 C-81.25105567 74.8931227 -81.26820562 78.60468575 -81.28515625 82.31640625 C-81.30388066 84.90286875 -81.32345502 87.48932522 -81.34384155 90.07577515 C-81.38981328 96.16696258 -81.42726936 102.25814678 -81.46051443 108.34941518 C-81.49887826 115.2903211 -81.54825051 122.23113547 -81.59849858 129.17196393 C-81.70152027 143.43619389 -81.78942372 157.70047593 -81.87109375 171.96484375 C-92.10109375 171.96484375 -102.33109375 171.96484375 -112.87109375 171.96484375 C-112.96172975 155.94318711 -113.03526961 139.92175262 -113.07834244 123.89990997 C-113.09888216 116.4590582 -113.12683612 109.01837818 -113.17285156 101.57763672 C-113.21298493 95.08488287 -113.23858881 88.59225353 -113.24744773 82.09937906 C-113.2526182 78.66810068 -113.26458577 75.23717819 -113.29401398 71.80601501 C-113.47418158 48.17204027 -111.98723956 29.39221977 -95.87109375 10.96484375 C-95.3503125 10.34867188 -94.82953125 9.7325 -94.29296875 9.09765625 C-70.99908712 -16.43149685 -27.67539608 -19.61752565 0 0 Z " fill="#7F0000" transform="translate(456.87109375,98.03515625)"/>
<path d="M0 0 C9.9 0 19.8 0 30 0 C30.01458252 3.69872314 30.02916504 7.39744629 30.04418945 11.20825195 C30.09460108 23.44986788 30.16105944 35.69135301 30.23571491 47.93284321 C30.28057429 55.3524311 30.32001133 62.77197205 30.34643555 70.19165039 C30.36949587 76.66283656 30.40298259 83.13387294 30.44870156 89.60494012 C30.47252623 93.02754055 30.49132506 96.44999364 30.49761391 99.87267494 C30.5072834 103.70480805 30.53537854 107.53640751 30.56762695 111.3684082 C30.56547432 113.04832352 30.56547432 113.04832352 30.5632782 114.76217651 C30.70931841 127.09096156 33.44071314 136.87293292 42 146 C51.00716197 153.55032706 62.58653293 157.84697747 74.37890625 157.31640625 C85.46446122 155.9782096 94.31628522 150.87086737 101.4296875 142.28515625 C108.93673718 131.36071829 110.07939971 119.8896402 109 107 C107.13969732 98.24444499 103.17395004 91.04276366 95.875 85.8125 C84.40161206 78.79680541 72.70045349 77.04008999 59.55859375 79.6953125 C52.94737064 81.70485413 47.48886584 84.85015184 42 89 C40.66688766 90.00029459 39.33358282 91.00033273 38 92 C37.80184395 86.82241114 37.65690111 81.64703814 37.56054688 76.46655273 C37.52037759 74.70574497 37.46582716 72.94520306 37.39648438 71.18530273 C36.83653771 56.6061031 36.83653771 56.6061031 39.60107422 52.78979492 C41.7222538 51.42112062 43.57585014 50.67850749 46 50 C47.01320312 49.55011719 48.02640625 49.10023438 49.0703125 48.63671875 C66.37854481 43.25832943 85.95390231 44.32334193 102.25 52.25 C108.03412322 55.3148175 113.13230695 58.62882937 118 63 C119.23169922 64.09248047 119.23169922 64.09248047 120.48828125 65.20703125 C133.31773439 77.25776189 141.58742711 93.36646182 142.23828125 111.08984375 C142.64316564 132.41193102 138.50904843 149.67020824 124 166 C123.44570313 166.63679687 122.89140625 167.27359375 122.3203125 167.9296875 C117.58904956 173.02315239 111.9763149 176.51671181 106 180 C105.319375 180.40347656 104.63875 180.80695313 103.9375 181.22265625 C94.40423668 186.44609011 83.88342825 187.53956343 73.1875 187.4375 C72.04748535 187.42847656 70.9074707 187.41945313 69.73291016 187.41015625 C49.10430204 186.98754712 30.4246997 178.78233688 16 164 C6.63650544 153.73399994 -0.13370037 140.51908786 -0.12025452 126.38749695 C-0.12162918 125.26995529 -0.12300385 124.15241364 -0.12442017 123.00100708 C-0.12082489 121.78468597 -0.11722961 120.56836487 -0.11352539 119.31518555 C-0.11367142 118.0269841 -0.11381744 116.73878265 -0.1139679 115.4115448 C-0.1142544 111.88714588 -0.10838136 108.36278111 -0.10139394 104.83839011 C-0.095136 101.15217497 -0.09455467 97.46595901 -0.09336853 93.77973938 C-0.09026241 86.8029528 -0.08205872 79.82618192 -0.07201904 72.84940225 C-0.06083557 64.90506236 -0.05534182 56.96072171 -0.05032361 49.0163759 C-0.03987551 32.6775733 -0.02153896 16.33879232 0 0 Z " fill="#000000" transform="translate(188,248)"/>
<path d="M0 0 C1.41223013 1.16795249 2.80913676 2.35476587 4.1875 3.5625 C5.10982422 4.36107422 5.10982422 4.36107422 6.05078125 5.17578125 C19.71387025 17.86942713 26.52042511 37.15723932 27.3125 55.44921875 C27.72163022 76.64727822 22.13646387 95.40793073 8.1875 111.5625 C7.60484375 112.24054688 7.0221875 112.91859375 6.421875 113.6171875 C-7.2333116 128.36249404 -26.05221904 133.39548784 -45.44921875 134.74609375 C-66.64575056 135.34169878 -85.88251213 128.66228196 -101.39453125 114.13671875 C-108.91646113 106.12871909 -114.32853998 96.98705489 -117.8125 86.5625 C-118.13089844 85.65113281 -118.44929687 84.73976563 -118.77734375 83.80078125 C-124.86324055 62.79462132 -121.45013225 39.27560911 -111.0703125 20.32421875 C-103.00993747 6.45656565 -90.90091583 -3.93609369 -75.8125 -9.4375 C-74.80960938 -9.829375 -73.80671875 -10.22125 -72.7734375 -10.625 C-49.21939072 -18.42220169 -19.92531784 -14.96076053 0 0 Z M-77.625 31.4375 C-85.25969839 40.69810638 -88.95340559 52.56261796 -87.8125 64.5625 C-85.59796566 76.62845548 -81.46906012 86.5909223 -71.59375 94.29296875 C-60.54852606 101.55484488 -48.08462751 102.92900224 -35.375 100.4375 C-26.10556594 98.12284552 -17.56555041 93.3500015 -11.8125 85.5625 C-4.54443746 72.94898865 -1.08843168 59.69935886 -4.875 45.25 C-8.7189374 34.63000552 -15.22036653 26.26239217 -25.43359375 21.28515625 C-43.54103718 13.72469324 -64.06920694 16.8213172 -77.625 31.4375 Z " fill="#000000" transform="translate(947.8125,301.4375)"/>
<path d="M0 0 C10.89 0 21.78 0 33 0 C33.01458252 2.55806396 33.02916504 5.11612793 33.04418945 7.75170898 C33.0946391 16.22549724 33.16125238 24.69910373 33.23571491 33.17271328 C33.28034716 38.30775302 33.31961899 43.44271473 33.34643555 48.57788086 C33.37253985 53.53823424 33.41299249 58.49828618 33.46318626 63.45845222 C33.47980687 65.34612324 33.49135096 67.23384633 33.49761391 69.12158012 C33.50730751 71.77595118 33.53542865 74.42955935 33.56762695 77.08374023 C33.56619186 77.85554626 33.56475677 78.62735229 33.5632782 79.42254639 C33.70575277 87.78580348 36.11026401 95.86485834 42 102 C49.75483371 108.37004198 59.08289065 110.62275971 68.97265625 110.35546875 C77.6470171 109.3369309 85.92200111 105.64847562 91.75 99.0625 C95.91091622 93.3990307 96.30117541 88.89305198 96.31884766 82.07885742 C96.32889328 81.19055237 96.3389389 80.30224731 96.34928894 79.38702393 C96.38010401 76.45984526 96.39715149 73.532758 96.4140625 70.60546875 C96.43277549 68.57236445 96.452349 66.5392679 96.4727478 64.50617981 C96.52406113 59.16167779 96.56369123 53.81715059 96.60089111 48.47253418 C96.64093569 43.01613134 96.69202599 37.55983317 96.7421875 32.10351562 C96.83893744 21.40240998 96.92232421 10.70126111 97 0 C108.88 0 120.76 0 133 0 C133.04533691 11.13613954 133.08196551 22.27221693 133.10362434 33.40842819 C133.1140239 38.58042605 133.12811256 43.75235703 133.15087891 48.92431641 C133.17274457 53.92343038 133.18459735 58.92248035 133.18975449 63.92163849 C133.19342575 65.8208339 133.20059422 67.72002615 133.21146011 69.61919403 C133.33624528 92.35098089 129.88758835 109.56074579 113.73828125 126.3515625 C99.01045052 140.04818067 81.84298054 146.93628128 61.90234375 147.01171875 C43.4902444 146.21317665 26.66685737 138.39256274 14 125 C4.2537937 113.25505999 -0.3542309 100.39707923 -0.22705078 85.25756836 C-0.22734283 84.32966492 -0.22763489 83.40176147 -0.22793579 82.44573975 C-0.22655399 79.41034248 -0.21104738 76.37519758 -0.1953125 73.33984375 C-0.19157828 71.22278477 -0.18873324 69.10572405 -0.18673706 66.98866272 C-0.17913284 61.44026851 -0.15951212 55.89198045 -0.1373291 50.34362793 C-0.11680127 44.67245927 -0.10772055 39.0012733 -0.09765625 33.33007812 C-0.07626302 22.21999815 -0.04110725 11.11002455 0 0 Z " fill="#7F0000" transform="translate(583,84)"/>
<path d="M0 0 C10.89 0 21.78 0 33 0 C33.029729 3.79165649 33.029729 3.79165649 33.06005859 7.65991211 C33.12711877 16.03388304 33.20475573 24.40773222 33.28752708 32.78156185 C33.33736397 37.85605602 33.38369474 42.93053063 33.421875 48.00512695 C33.45888753 52.90706738 33.50528996 57.80883904 33.55806351 62.71063423 C33.57652291 64.57598456 33.59166168 66.44137096 33.60334396 68.30677605 C33.62035199 70.9298703 33.64942039 73.5525851 33.68115234 76.17553711 C33.68331253 76.9379924 33.68547272 77.70044769 33.68769836 78.48600769 C33.82925805 87.71209815 35.36740912 95.29684964 42 102 C51.68773896 109.94394594 61.82020501 110.963782 74 110 C81.29966322 108.31619826 88.96378899 104.32110031 93.34765625 98.08203125 C97.02771257 91.26271541 97.1485623 83.99278098 97.20532227 76.40258789 C97.21522186 75.57251221 97.22512146 74.74243652 97.23532104 73.88720703 C97.26670342 71.16571831 97.29160067 68.44421218 97.31640625 65.72265625 C97.33699591 63.8269355 97.35799289 61.93121913 97.37937927 60.0355072 C97.43439224 55.06256678 97.48389256 50.08958637 97.53222656 45.11657715 C97.58259391 40.03536447 97.63820022 34.95420939 97.69335938 29.87304688 C97.80068661 19.9154121 97.9017028 9.95772801 98 0 C109.55 0 121.1 0 133 0 C133.06806109 11.36236195 133.12297976 22.72458616 133.15543652 34.0871067 C133.17102235 39.36446394 133.19212969 44.6416732 133.22631836 49.91894531 C133.25916634 55.02181812 133.27690612 60.12454953 133.28463173 65.22751999 C133.29012994 67.16414995 133.30086511 69.10077311 133.31719017 71.03734207 C133.48536266 91.8338959 130.83349681 108.94038188 115.71484375 124.31640625 C114.81894531 125.20199219 113.92304688 126.08757812 113 127 C112.34128906 127.66902344 111.68257813 128.33804688 111.00390625 129.02734375 C97.26394748 142.05814336 79.1884407 147.6072822 60.58203125 147.2734375 C42.35914886 146.49668666 26.2970876 138.23034871 14 125 C4.22911827 113.30727205 -0.35397383 100.36647748 -0.22705078 85.25756836 C-0.22734283 84.32966492 -0.22763489 83.40176147 -0.22793579 82.44573975 C-0.22655399 79.41034248 -0.21104738 76.37519758 -0.1953125 73.33984375 C-0.19157828 71.22278477 -0.18873324 69.10572405 -0.18673706 66.98866272 C-0.17913284 61.44026851 -0.15951212 55.89198045 -0.1373291 50.34362793 C-0.11680127 44.67245927 -0.10772055 39.0012733 -0.09765625 33.33007812 C-0.07626302 22.21999815 -0.04110725 11.11002455 0 0 Z " fill="#000000" transform="translate(345,289)"/>
<path d="M0 0 C10.89 0 21.78 0 33 0 C33 12.54 33 25.08 33 38 C39.93 38 46.86 38 54 38 C54 49.22 54 60.44 54 72 C47.07 72 40.14 72 33 72 C33.06299689 80.63231438 33.13847346 89.26427477 33.23571491 97.89627266 C33.28037715 101.90478619 33.31964218 105.91319905 33.34643555 109.921875 C33.37251025 113.79297374 33.4129415 117.66368427 33.46318626 121.53454208 C33.47982694 123.00880975 33.49135864 124.48314452 33.49761391 125.95749283 C33.507286 128.02822485 33.5353794 130.09797 33.56762695 132.16845703 C33.58428154 133.93384323 33.58428154 133.93384323 33.60127258 135.7348938 C34.36349478 141.97659255 37.33740866 145.95908751 42 150 C49.34237861 155.19231954 53.45740713 156 63 156 C63 166.56 63 177.12 63 188 C45.00229105 188 28.9223531 183.75111711 14.890625 171.96875 C2.40105797 158.96308516 -0.32529786 142.37273018 -0.22705078 125.10498047 C-0.22648545 123.73406482 -0.22680561 122.36314857 -0.22793579 120.99223328 C-0.22850554 117.30074024 -0.21681309 113.60937932 -0.20278788 109.91791677 C-0.1902169 106.04889199 -0.18910503 102.17986359 -0.18673706 98.31082153 C-0.18054089 90.99772836 -0.16415551 83.68469556 -0.14403808 76.37162888 C-0.12162081 68.04024599 -0.11067105 59.7088601 -0.10064721 51.37745452 C-0.07978746 34.25159552 -0.04313474 17.12581959 0 0 Z " fill="#800000" transform="translate(501,42)"/>
<path d="M0 0 C1 1 1 1 1.11352539 4.14282227 C1.11336633 5.53402697 1.10767506 6.92523761 1.09765625 8.31640625 C1.0962413 9.04746078 1.09482635 9.77851532 1.09336853 10.53172302 C1.08775408 12.87535632 1.07519922 15.21889539 1.0625 17.5625 C1.05748686 19.14778508 1.05292363 20.73307166 1.04882812 22.31835938 C1.03777997 26.2122761 1.02050572 30.10612205 1 34 C0.3702124 33.85997559 -0.2595752 33.71995117 -0.90844727 33.57568359 C-15.29190919 30.5152574 -28.00599367 30.82340024 -40.75 38.8125 C-49.66195751 45.21001236 -55.98901825 52.86850506 -58 64 C-58.92564144 77.61148146 -57.16714561 89.2474057 -48 100 C-39.19408878 108.2504363 -29.33605627 112.86269532 -17.25 113.3125 C-10.63441947 113.06497639 -10.63441947 113.06497639 1 110 C1 121.55 1 133.1 1 145 C-21.14507833 147.76813479 -42.11445402 147.47793929 -60.73779297 133.71582031 C-64.41240705 130.71680792 -67.70683553 127.40854541 -71 124 C-71.81082031 123.22011719 -72.62164062 122.44023437 -73.45703125 121.63671875 C-82.63471523 112.3339556 -88.51386505 99.77996644 -91 87 C-91.18175781 86.09507812 -91.36351563 85.19015625 -91.55078125 84.2578125 C-94.14886913 65.41602735 -91.21944227 45.78150984 -80 30.125 C-78.69048499 28.39834109 -77.35626073 26.69018856 -76 25 C-74.82244141 23.50919922 -74.82244141 23.50919922 -73.62109375 21.98828125 C-62.16085664 8.92258618 -44.55468378 -0.17597373 -27.28125 -1.875 C-18.05040694 -2.38079962 -8.99267024 -2.3922249 0 0 Z " fill="#7F0000" transform="translate(167,83)"/>
<path d="M0 0 C10.56 0 21.12 0 32 0 C32 12.21 32 24.42 32 37 C39.26 37 46.52 37 54 37 C54 48.22 54 59.44 54 71 C46.74 71 39.48 71 32 71 C32.06308534 79.33702456 32.13863628 87.67365695 32.23571491 96.01034546 C32.28031025 99.88203827 32.31958961 103.75362849 32.34643555 107.62548828 C32.37257753 111.36692419 32.41305519 115.10796297 32.46318626 118.84915161 C32.47978179 120.27152541 32.49134139 121.69396778 32.49761391 123.11642456 C32.53268523 133.92887375 32.53268523 133.92887375 36 144 C36.52914505 144.52078125 37.0582901 145.0415625 37.60346985 145.578125 C39 147 39 147 39 149 C39.5878125 149.28746094 40.175625 149.57492187 40.78125 149.87109375 C42.11607152 150.5502547 43.43579884 151.26246976 44.71875 152.03515625 C51.29495571 155.82801174 54.42127183 155.28510599 63 156 C63 166.23 63 176.46 63 187 C44.83614941 188.81638506 29.56682256 182.56317437 15.046875 171.84375 C11.55622956 168.69950449 9.25411613 165.08869644 7 161 C6.62230469 160.35160156 6.24460937 159.70320312 5.85546875 159.03515625 C0.39961683 149.04297802 -0.4343823 138.92024719 -0.34057617 127.71606445 C-0.33972797 126.31544513 -0.34020881 124.91482448 -0.34190369 123.51420593 C-0.34275752 119.74626277 -0.32523215 115.97861145 -0.30418181 112.21073556 C-0.28531186 108.26031272 -0.2836565 104.30988174 -0.28010559 100.35942078 C-0.27081522 92.89403732 -0.24624261 85.42878709 -0.21605712 77.96346205 C-0.18241893 69.45794629 -0.16600352 60.95242387 -0.15097082 52.44685805 C-0.11969 34.96448136 -0.06471602 17.4822871 0 0 Z " fill="#000000" transform="translate(749,248)"/>
<path d="M0 0 C0 11.22 0 22.44 0 34 C-2.76375 33.896875 -5.5275 33.79375 -8.375 33.6875 C-16.03674982 33.59629686 -21.68211521 34.32680694 -28 39 C-28.81082031 39.59296875 -29.62164063 40.1859375 -30.45703125 40.796875 C-36.29388012 45.51161561 -40.1389407 50.73371395 -41.37709808 58.30635262 C-41.52627526 60.73149641 -41.56049612 63.12917907 -41.54589844 65.55883789 C-41.55623611 66.46723419 -41.56657379 67.37563049 -41.57722473 68.31155396 C-41.60647015 71.28210626 -41.60814803 74.2519718 -41.609375 77.22265625 C-41.62436898 79.29488917 -41.64109867 81.3671102 -41.65948486 83.4393158 C-41.70303369 88.86929904 -41.72312987 94.29912109 -41.73822021 99.72924805 C-41.75783627 105.27988161 -41.79980122 110.83034224 -41.83984375 116.38085938 C-41.91501103 127.25388203 -41.96331636 138.12677934 -42 149 C-53.88 149 -65.76 149 -78 149 C-78.09079097 136.88988121 -78.16399702 124.7799928 -78.20724869 112.66960907 C-78.22801952 107.04474625 -78.25614281 101.42013072 -78.30175781 95.79541016 C-78.34559323 90.35535797 -78.36921584 84.91554188 -78.37950897 79.47532654 C-78.38683327 77.41194448 -78.40113339 75.34857362 -78.42292023 73.28529358 C-78.63153412 52.68778786 -76.21534491 34.89801132 -61.39453125 19.33984375 C-47.47445916 5.73768522 -19.97549791 -9.98774896 0 0 Z " fill="#000000" transform="translate(573,287)"/>
<path d="M0 0 C0 11.22 0 22.44 0 34 C-5.61 34 -11.22 34 -17 34 C-20.75456767 35.20516987 -22.88434845 35.95893031 -26 38 C-26.69351563 38.42410156 -27.38703125 38.84820312 -28.1015625 39.28515625 C-34.37814744 43.50480792 -39.43548018 49.47148472 -41 57 C-41.11838959 59.97338384 -41.18508597 62.92526329 -41.20532227 65.89941406 C-41.21522186 66.79732666 -41.22512146 67.69523926 -41.23532104 68.62036133 C-41.26688411 71.58542248 -41.29167299 74.55049966 -41.31640625 77.515625 C-41.33698026 79.57257501 -41.35797685 81.62952084 -41.37937927 83.6864624 C-41.43455378 89.09839486 -41.48398347 94.51036519 -41.53222656 99.92236328 C-41.5824753 105.44567227 -41.63814377 110.96892632 -41.69335938 116.4921875 C-41.80088446 127.3280798 -41.90184114 138.1640188 -42 149 C-53.88 149 -65.76 149 -78 149 C-78.06804158 137.11610254 -78.1229687 125.23233654 -78.15543652 113.34828758 C-78.17102709 107.8287972 -78.1921434 102.30944814 -78.22631836 96.79003906 C-78.25914903 91.45374812 -78.27690258 86.11759227 -78.28463173 80.78120804 C-78.29013298 78.7552643 -78.30087433 76.72932713 -78.31719017 74.70344162 C-78.48591846 52.8650018 -75.78939791 34.18188552 -59.94140625 17.8828125 C-46.21406708 4.93629446 -19.22505965 -9.61252983 0 0 Z " fill="#000000" transform="translate(676,287)"/>
<path d="M0 0 C1.25683594 -0.00257812 2.51367188 -0.00515625 3.80859375 -0.0078125 C7.5625 0.125 7.5625 0.125 14.5625 1.125 C14.5625 12.345 14.5625 23.565 14.5625 35.125 C9.6125 35.125 4.6625 35.125 -0.4375 35.125 C-10.54799905 38.14652845 -19.22469194 43.67886055 -24.4375 53.125 C-26.3164618 58.58886811 -26.7411263 63.42878648 -26.75634766 69.18139648 C-26.77141609 70.49966179 -26.77141609 70.49966179 -26.78678894 71.84455872 C-26.81750023 74.72839752 -26.83462243 77.61214399 -26.8515625 80.49609375 C-26.87028385 82.50391935 -26.88985798 84.51173716 -26.9102478 86.51954651 C-26.96147279 91.78839518 -27.00115004 97.05726932 -27.03839111 102.32623291 C-27.07849122 107.70908868 -27.12955613 113.09183933 -27.1796875 118.47460938 C-27.27633278 129.02467291 -27.35975988 139.5747802 -27.4375 150.125 C-39.3175 150.125 -51.1975 150.125 -63.4375 150.125 C-63.50558286 138.51914098 -63.56049214 126.91341706 -63.59293652 115.30740261 C-63.60851703 109.91685435 -63.62961438 104.52645114 -63.66381836 99.13598633 C-63.69668565 93.9228837 -63.71441009 88.70991961 -63.72213173 83.49672127 C-63.72762654 81.51905198 -63.73835477 79.54138929 -63.75469017 77.56377983 C-63.91240891 57.65770242 -62.33080802 38.65281485 -48.4375 23.125 C-47.86515625 22.45984375 -47.2928125 21.7946875 -46.703125 21.109375 C-34.73731316 8.1208442 -17.64418973 -0.03611912 0 0 Z " fill="#7F0000" transform="translate(808.4375,79.875)"/>
<path d="M0 0 C0 11.22 0 22.44 0 34 C-4.62 34 -9.24 34 -14 34 C-23.35940175 36.51596821 -31.25059878 40.65901517 -36.9375 48.75 C-42.52785755 59.22802654 -41.3414313 72.13773036 -41.4140625 83.66796875 C-41.43280289 85.55797646 -41.45237837 87.44797606 -41.4727478 89.33796692 C-41.52377203 94.27795599 -41.56355552 99.2179721 -41.60089111 104.15808105 C-41.64111845 109.21287562 -41.69212474 114.2675606 -41.7421875 119.32226562 C-41.83859444 129.2147739 -41.92211243 139.10732856 -42 149 C-53.55 149 -65.1 149 -77 149 C-77.09074403 136.74222663 -77.1639704 124.48468015 -77.20724869 112.22664547 C-77.22803095 106.53337456 -77.25617581 100.84034745 -77.30175781 95.1472168 C-77.34555159 89.64233094 -77.3692073 84.13767806 -77.37950897 78.6326313 C-77.3868406 76.54330344 -77.40115563 74.45398681 -77.42292023 72.36475945 C-77.63157379 51.48553022 -74.82103972 34.37030141 -59.828125 18.63671875 C-42.76029377 2.7240308 -22.8908037 -3.81513395 0 0 Z " fill="#7F0000" transform="translate(265,81)"/>
<path d="M0 0 C10.89 0 21.78 0 33 0 C33 45.87 33 91.74 33 139 C22.11 139 11.22 139 0 139 C0 93.13 0 47.26 0 0 Z " fill="#800000" transform="translate(290,91)"/>
<path d="M0 0 C10.56 0 21.12 0 32 0 C32 45.87 32 91.74 32 139 C21.44 139 10.88 139 0 139 C0 93.13 0 47.26 0 0 Z " fill="#000000" transform="translate(695,296)"/>
<path d="M0 0 C5.17000703 2.67452745 7.94407248 6.91424868 9.7421875 12.30859375 C10.4151086 19.75485177 10.31011571 26.14858633 5.7421875 32.30859375 C1.74664514 36.30413611 -2.16995568 38.26711508 -7.875 38.34375 C-13.68425393 38.02101367 -17.85621933 37.39578741 -22.2578125 33.30859375 C-26.84504994 27.89640353 -28.65253803 22.40237537 -28.2578125 15.30859375 C-26.92009611 9.07679303 -23.96201799 4.31941321 -18.8203125 0.49609375 C-12.82266635 -1.50312163 -6.10574276 -1.86975168 0 0 Z " fill="#7F0000" transform="translate(315.2578125,44.69140625)"/>
<path d="M0 0 C4.45837448 3.78193146 6.92392369 7.82634748 7.87890625 13.60546875 C8.21827163 20.31614542 6.6739128 26.35443922 2.3984375 31.59375 C-1.41265712 35.42613565 -5.1432166 36.20626095 -10.375 36.4375 C-17.07405851 36.23698396 -21.70059617 34.35991446 -26.375 29.5625 C-30.41774686 23.18739919 -30.63335257 17.39916658 -30 10 C-28.2931915 4.7847518 -25.45098136 2.14186919 -21 -1 C-13.73855066 -4.31500948 -6.85160459 -3.93332856 0 0 Z " fill="#000000" transform="translate(722,252)"/>
</svg>
