<svg version="1.1" id="Layer_1" xmlns="http://www.w3.org/2000/svg" xmlns:xlink="http://www.w3.org/1999/xlink" x="0px" y="0px"
	 width="100%" viewBox="0 0 294 265" enable-background="new 0 0 294 265" xml:space="preserve">
<path fill="#6D6D6D" opacity="1.000000" stroke="none" 
	d="
M166.927338,112.128937 
	C142.526932,102.967819 128.998367,81.117516 131.045074,54.622444 
	C132.743759,32.632282 151.776657,11.381984 174.456345,7.216926 
	C196.436920,3.180258 217.563431,11.087443 230.950638,31.226913 
	C242.698120,48.899609 242.301285,73.719803 229.962906,91.485809 
	C217.074066,110.044395 194.506851,118.805046 172.572845,113.741486 
	C170.795273,113.331131 169.053192,112.766983 166.927338,112.128937 
M195.401840,44.089748 
	C193.872604,42.560421 192.427292,40.934280 190.797211,39.521290 
	C187.042923,36.266972 183.054291,36.040054 179.564972,39.321690 
	C174.107132,44.454647 168.748657,49.718616 163.680603,55.232689 
	C159.577560,59.696812 161.199326,66.346344 167.060333,67.991371 
	C170.039642,68.827576 173.626465,67.499336 177.041931,67.138649 
	C177.041931,69.330490 177.006317,71.994987 177.049118,74.658226 
	C177.147888,80.803749 180.216843,84.291550 185.427826,84.237556 
	C190.508087,84.184914 193.195465,80.986450 193.261993,74.863762 
	C193.293411,71.973457 193.267395,69.082520 193.267395,65.772568 
	C194.662674,66.338898 195.127502,66.483147 195.550858,66.706139 
	C200.980148,69.565781 204.233765,69.252991 207.015289,65.589172 
	C209.938950,61.738171 209.308701,58.050419 205.052307,53.812263 
	C201.983887,50.757008 198.952988,47.664074 195.401840,44.089748 
z"/>
<path fill="#6D6D6D" opacity="1.000000" stroke="none" 
	d="
M118.363129,161.827545 
	C98.028114,159.047287 84.108192,143.592117 84.002708,123.708672 
	C83.860367,96.878769 83.872086,70.046867 84.024643,43.217003 
	C84.124657,25.627535 99.532547,8.582651 116.917580,7.031311 
	C123.322937,6.459735 129.843277,7.176763 137.621292,7.332228 
	C133.162399,12.993823 129.634476,16.952040 126.683899,21.301886 
	C102.178802,57.428143 116.404984,107.370422 156.363205,124.850838 
	C160.769531,126.778458 161.102341,128.805679 160.077621,132.727127 
	C155.722290,149.394485 139.874390,163.713669 118.363129,161.827545 
z"/>
<path fill="#6D6D6D" opacity="1.000000" stroke="none" 
	d="
M130.883591,240.507065 
	C115.071884,240.443893 99.260178,240.382767 83.448486,240.315369 
	C81.116913,240.305435 78.780983,240.348816 76.454880,240.223022 
	C71.258392,239.941971 68.100609,237.110855 68.078308,232.833969 
	C68.055382,228.436417 71.538734,225.067078 76.668953,225.008850 
	C87.661179,224.884094 98.655739,224.963684 109.649338,224.959778 
	C111.257118,224.959213 112.864906,224.959717 115.067825,224.959717 
	C115.067825,214.751007 115.196251,205.136734 114.878120,195.537277 
	C114.844643,194.527237 112.281509,192.992630 110.721077,192.734451 
	C92.473869,189.715179 76.407730,182.324646 63.090759,169.354462 
	C48.922607,155.555267 40.194057,138.985458 37.963963,119.193695 
	C37.556442,115.577026 37.084476,111.944923 37.042854,108.315353 
	C36.988865,103.606697 40.317345,100.032974 44.426701,99.895569 
	C48.724106,99.751877 51.827885,102.819313 52.000797,107.987877 
	C52.603710,126.009743 58.722221,141.772354 70.861626,155.154373 
	C105.375290,193.200943 168.440842,182.108810 187.825562,134.515961 
	C188.843643,132.016388 189.927887,131.001816 192.725388,130.833435 
	C196.789124,130.588852 200.804443,129.539780 205.757080,128.673431 
	C193.799133,166.232864 168.816467,187.205505 130.307388,193.375305 
	C130.307388,202.890732 130.166107,212.484772 130.513458,222.061096 
	C130.550537,223.082932 133.424225,224.803391 135.012054,224.838455 
	C145.999802,225.081039 156.996689,225.052780 167.988068,224.911545 
	C171.859955,224.861801 175.070312,225.847534 176.522522,229.564499 
	C177.946075,233.208084 176.753464,236.427460 173.061935,239.046509 
	C172.001587,239.553787 171.520050,239.876343 171.038513,240.198883 
	C162.364532,240.226990 153.690552,240.255096 144.121429,240.210220 
	C139.112061,240.260513 134.997833,240.383789 130.883591,240.507065 
z"/>
</svg>